<svg width="165" height="35" viewBox="0 0 165 35" fill="none" xmlns="http://www.w3.org/2000/svg">
<path d="M9.17776 26.9006C10.2165 19.4869 11.2553 12.072 12.2941 4.65595C12.324 4.44593 12.3325 4.23171 12.3652 4.02099C12.9038 0.520657 13.4047 0.170624 16.8476 0.636168C17.8344 0.76918 17.6516 1.33623 17.5534 1.9915C16.886 6.45792 16.2386 10.9278 15.5719 15.3943C14.6932 21.279 13.7633 27.1554 12.9501 33.0513C12.7886 34.2211 12.4072 34.5705 11.3136 34.5124C9.62385 34.4134 7.9295 34.416 6.24003 34.5201C5.16426 34.5901 4.8078 34.1511 4.66266 33.1444C3.8416 27.4648 2.98782 21.7901 2.14399 16.116C1.4567 11.4914 0.793591 6.86256 0.0614705 2.24562C-0.121382 1.09401 0.0500868 0.590663 1.31582 0.631267C6.2137 0.788082 5.02694 -0.18571 5.78752 4.81416C6.84194 11.7448 7.72561 18.7084 8.68896 25.6565C8.74588 26.071 8.86257 26.4763 8.9515 26.8866L9.17562 26.9027" fill="#FEA218"/>
<path d="M19.8079 17.5427C19.8079 12.4322 19.8463 7.32168 19.7808 2.2112C19.7645 0.937779 20.1465 0.534541 21.3518 0.554143C25.0409 0.612948 28.7313 0.604548 32.4204 0.557643C33.5211 0.543642 33.9722 0.865672 33.9352 2.09779C33.8313 5.59182 33.8754 5.59322 30.52 5.59322C29.0849 5.59322 27.6492 5.61912 26.2155 5.58412C25.4208 5.56522 24.9953 5.74303 25.0209 6.72453C25.0826 9.06462 25.0826 11.4063 25.0209 13.7497C24.9967 14.7298 25.4094 14.8978 26.2169 14.8747C27.8043 14.8285 29.3944 14.8859 30.9839 14.8516C31.7402 14.8348 32.0511 15.0616 32.0931 15.9241C32.2888 19.7563 32.3172 19.7549 28.5962 19.7549C25.0387 19.7549 25.0387 19.7549 25.0387 23.5058C25.0387 24.9963 25.0956 26.4902 25.0202 27.9764C24.9654 29.0615 25.2692 29.49 26.3792 29.4466C28.4261 29.364 30.4787 29.455 32.5278 29.4116C33.5766 29.3892 33.9508 29.7791 33.938 30.9062C33.8882 34.4107 33.928 34.4114 30.5776 34.4114C27.5538 34.4114 24.53 34.3414 21.5076 34.443C20.197 34.4864 19.7424 34.1797 19.7694 32.7117C19.8641 27.6565 19.8057 22.5978 19.8057 17.5413" fill="#FEA218"/>
<path d="M52.0557 33.7223C51.3762 30.6217 51.7661 27.4665 51.6871 24.3352C51.6231 21.8058 50.9586 19.6125 48.5153 18.0808C49.2484 17.6512 49.8809 17.074 50.3714 16.387C50.8618 15.7 51.1992 14.9188 51.3613 14.0946C51.8491 11.5272 51.8895 8.89687 51.4808 6.31615C50.9358 2.87182 49.3463 1.33798 46.0322 0.840229C43.3805 0.441892 40.7089 0.716318 38.0558 0.548302C36.4656 0.448192 36.0636 1.02645 36.0728 2.6205C36.1376 11.9356 36.1049 21.2514 36.1049 30.5664C36.1049 34.3916 36.1049 34.3076 39.7598 34.4581C41.2226 34.5183 41.4517 33.9506 41.4247 32.6379C41.3535 29.2328 41.4247 25.8242 41.3855 22.417C41.3734 21.3886 41.5634 20.888 42.7238 20.9111C45.3563 20.9629 46.3069 21.803 46.4093 24.639C46.494 26.9779 46.4036 29.3245 46.5118 31.662C46.6391 34.4168 46.6954 34.414 49.2866 34.414C50.0038 34.414 50.7217 34.4063 51.4388 34.414C51.9041 34.4203 52.2023 34.3888 52.0557 33.7188M46.3083 13.1852C46.1738 15.3554 43.5769 16.8178 41.7064 15.8454C41.2674 15.6172 41.3507 15.2483 41.3443 14.9004C41.3307 13.5198 41.3386 12.1393 41.3393 10.7588C41.3393 9.42864 41.3635 8.10342 41.3314 6.77679C41.3101 5.89191 41.658 5.60278 42.5125 5.57338C45.5399 5.46907 46.2172 6.04802 46.3545 9.20742C46.409 10.5325 46.3941 11.8595 46.3097 13.1831" fill="#FEA218"/>
<path d="M69.5969 6.4203C69.5686 5.52162 69.3428 4.63964 68.9351 3.83501C68.5273 3.03039 67.9472 2.32224 67.2347 1.75926C64.3532 -0.399046 61.1921 -0.457152 58.0502 0.963283C55.1388 2.28011 54.2892 4.97536 54.2686 8.04095C54.248 11.1254 54.2643 14.2106 54.2643 17.2951H54.2537C54.2537 20.5399 54.1825 23.7868 54.2764 27.0261C54.3518 29.603 55.0285 31.979 57.2832 33.5031C62.5638 37.0734 69.355 33.9399 69.71 27.4629C70.1312 20.4524 70.0936 13.4225 69.5976 6.4168M64.0665 17.5101C64.0665 20.9194 63.9954 24.3308 64.0971 27.7373C64.1433 29.3069 63.2497 29.1536 62.3184 29.1144C61.4162 29.0765 60.3205 29.5008 60.3476 27.7625C60.4244 22.8621 60.3475 17.9616 60.4187 13.0611C60.4365 11.7947 60.186 11.138 58.8335 11.3376C58.2067 11.43 57.523 11.4076 57.6304 10.4135C57.7065 9.71341 57.2405 8.77532 58.5439 8.64371C59.1521 8.61028 59.7361 8.39835 60.2207 8.03523C60.7052 7.67212 61.0681 7.17449 61.2625 6.60652C61.7214 5.3464 62.7567 5.89665 63.5172 5.89735C64.3895 5.89735 64.0459 6.77873 64.0501 7.28348C64.08 10.6921 64.0658 14.1014 64.0658 17.5115" fill="#FEA218"/>
<path d="M92.576 10.374L92.472 10.53C90.0973 10.4953 87.9047 10.5473 85.894 10.686C85.426 12.5407 85.062 14.4647 84.802 16.458C86.3273 16.2153 87.558 16.0767 88.494 16.042C89.3087 16.0247 89.9067 16.146 90.288 16.406C90.6867 16.666 90.886 17.108 90.886 17.732C90.886 18.1307 90.7907 18.46 90.6 18.72L90.496 18.85C88.4507 18.8673 86.4487 18.9627 84.49 19.136C84.3687 20.384 84.2647 21.7187 84.178 23.14C86.154 22.828 87.8613 22.6633 89.3 22.646C90.8947 22.6113 91.692 23.2787 91.692 24.648C91.692 25.064 91.588 25.4367 91.38 25.766L91.302 25.922C90.5913 25.87 89.04 25.9307 86.648 26.104C84.1173 26.2947 82.67 26.39 82.306 26.39C81.2313 26.39 80.694 25.9133 80.694 24.96C80.694 19.448 81.084 14.8287 81.864 11.102L81.084 11.258C80.2347 11.4313 79.602 11.8127 79.186 12.402C78.7873 12.9913 78.6053 13.5893 78.64 14.196C78.6747 14.7853 78.848 15.2793 79.16 15.678C78.5187 16.1287 77.756 16.198 76.872 15.886C75.9707 15.47 75.52 14.586 75.52 13.234C75.52 12.0727 75.936 11.0847 76.768 10.27C77.6 9.438 78.77 8.83133 80.278 8.45C82.8607 7.79133 86.1453 7.45333 90.132 7.436C91.1027 7.41867 91.8047 7.54 92.238 7.8C92.6713 8.06 92.888 8.528 92.888 9.204C92.888 9.65467 92.784 10.0447 92.576 10.374ZM105.561 21.632L105.743 20.956C106.177 20.6787 106.627 20.644 107.095 20.852C107.546 21.0427 107.771 21.424 107.771 21.996C107.771 22.7587 107.425 23.5907 106.731 24.492C105.778 25.7573 104.573 26.39 103.117 26.39C102.355 26.39 101.661 26.208 101.037 25.844C100.431 25.4453 99.7027 24.7347 98.8534 23.712C98.1254 24.7173 97.4754 25.4193 96.9034 25.818C96.366 26.1993 95.6727 26.39 94.8234 26.39C93.922 26.39 93.2027 26.0867 92.6654 25.48C92.128 24.856 91.8594 24.0153 91.8594 22.958C91.8594 22.282 92.0154 21.7447 92.3274 21.346C92.6394 20.93 93.0554 20.722 93.5754 20.722C93.818 20.722 94.0347 20.7827 94.2254 20.904C94.4334 21.0253 94.5634 21.164 94.6154 21.32L94.6934 21.502C94.5027 21.9527 94.4334 22.4207 94.4854 22.906C94.5547 23.3913 94.7627 23.634 95.1094 23.634C95.4734 23.634 96.106 22.828 97.0074 21.216C95.5687 19.1707 94.676 17.966 94.3294 17.602C94.1734 17.4633 93.9827 17.2987 93.7574 17.108C93.7574 16.588 93.9394 16.146 94.3034 15.782C94.6674 15.4007 95.1527 15.21 95.7594 15.21C96.4527 15.21 97.016 15.4007 97.4494 15.782C97.8827 16.146 98.4027 16.8393 99.0094 17.862C99.6854 16.9087 100.327 16.2327 100.933 15.834C101.54 15.418 102.207 15.21 102.935 15.21C103.507 15.21 103.967 15.392 104.313 15.756C104.66 16.1027 104.842 16.588 104.859 17.212C104.097 17.472 103.403 17.8707 102.779 18.408C102.173 18.9453 101.497 19.7687 100.751 20.878C101.254 21.71 101.705 22.3513 102.103 22.802C102.485 23.2007 102.771 23.4433 102.961 23.53C103.152 23.6167 103.412 23.66 103.741 23.66C104.157 23.66 104.539 23.4347 104.885 22.984C105.18 22.5853 105.405 22.1347 105.561 21.632ZM118.435 21.242L118.487 20.956C118.92 20.6787 119.371 20.644 119.839 20.852C120.29 21.0427 120.515 21.424 120.515 21.996C120.515 22.724 120.151 23.5127 119.423 24.362C118.92 24.9513 118.088 25.4367 116.927 25.818C115.783 26.1993 114.44 26.39 112.897 26.39C111.094 26.39 109.664 25.9567 108.607 25.09C108.451 26.5287 108.243 28.002 107.983 29.51C107.879 30.1167 107.688 30.55 107.411 30.81C107.134 31.07 106.718 31.2 106.163 31.2C105.539 31.2 105.054 31.0267 104.707 30.68C104.984 29.2067 105.192 27.742 105.331 26.286C105.435 25.246 105.53 23.6253 105.617 21.424C105.721 19.188 105.79 17.8187 105.825 17.316C105.929 15.912 106.648 15.21 107.983 15.21C108.451 15.21 108.806 15.3313 109.049 15.574C109.309 15.7993 109.43 16.1373 109.413 16.588C110.297 15.6693 111.372 15.21 112.637 15.21C113.937 15.21 114.977 15.6173 115.757 16.432C116.537 17.2467 116.927 18.356 116.927 19.76C116.927 21.372 116.39 22.7673 115.315 23.946C116.234 23.8593 116.944 23.53 117.447 22.958C117.95 22.386 118.279 21.814 118.435 21.242ZM111.961 23.4C112.932 22.7413 113.417 21.632 113.417 20.072C113.417 18.564 112.906 17.81 111.883 17.81C111.155 17.81 110.54 18.1913 110.037 18.954C109.552 19.7167 109.24 20.7653 109.101 22.1C109.361 21.892 109.673 21.788 110.037 21.788C110.557 21.788 110.982 21.9353 111.311 22.23C111.658 22.5073 111.874 22.8973 111.961 23.4ZM128.841 21.632L129.023 20.956C129.456 20.6787 129.898 20.644 130.349 20.852C130.817 21.0427 131.051 21.424 131.051 21.996C131.051 22.7587 130.704 23.5907 130.011 24.492C129.058 25.7573 127.94 26.39 126.657 26.39C124.785 26.39 123.797 25.48 123.693 23.66C123.624 22.4813 123.537 21.502 123.433 20.722C123.364 20.1673 123.26 19.7773 123.121 19.552C122.982 19.3267 122.748 19.1533 122.419 19.032C122.055 18.8933 121.691 18.8413 121.327 18.876C121.275 19.812 121.058 20.8693 120.677 22.048C120.469 22.724 120.244 23.2093 120.001 23.504C119.758 23.7813 119.438 23.92 119.039 23.92C118.588 23.92 118.233 23.7467 117.973 23.4C118.545 20.7653 118.831 18.9973 118.831 18.096C118.224 17.3333 118.086 16.5793 118.415 15.834C118.762 15.0713 119.368 14.69 120.235 14.69C120.599 14.69 120.911 14.7767 121.171 14.95C121.448 15.106 121.665 15.288 121.821 15.496C121.977 15.704 122.072 15.8167 122.107 15.834C122.436 15.99 122.965 16.146 123.693 16.302C124.404 16.458 124.906 16.6227 125.201 16.796C125.513 16.952 125.79 17.2553 126.033 17.706C126.276 18.1393 126.449 18.6853 126.553 19.344C126.657 20.0027 126.77 21.0773 126.891 22.568C126.943 23.296 127.16 23.66 127.541 23.66C127.818 23.66 128.078 23.4347 128.321 22.984C128.564 22.5333 128.737 22.0827 128.841 21.632ZM150.818 21.606L151 20.956C151.434 20.6787 151.876 20.644 152.326 20.852C152.794 21.0427 153.028 21.424 153.028 21.996C153.028 22.724 152.664 23.5213 151.936 24.388C150.81 25.7227 148.825 26.39 145.982 26.39C145.098 26.39 144.405 26.26 143.902 26C143.417 25.7227 143.174 25.35 143.174 24.882C143.174 24.4487 143.33 24.128 143.642 23.92C145.168 23.92 145.93 23.27 145.93 21.97C145.93 20.9647 145.644 20.098 145.072 19.37C144.518 18.642 143.798 18.2173 142.914 18.096C142.724 20.6267 141.892 22.646 140.418 24.154C138.928 25.6447 136.822 26.39 134.1 26.39C132.35 26.39 130.98 25.9653 129.992 25.116C129.004 24.2667 128.51 23.088 128.51 21.58C128.51 19.8467 129.082 18.356 130.226 17.108C131.388 15.8427 132.852 15.21 134.62 15.21C135.816 15.21 136.761 15.496 137.454 16.068C138.165 16.64 138.52 17.394 138.52 18.33C138.52 19.4913 137.974 20.4533 136.882 21.216C135.79 21.9787 134.239 22.4727 132.228 22.698C132.679 23.5127 133.502 23.92 134.698 23.92C136.553 23.92 137.948 23.3307 138.884 22.152C139.838 20.956 140.254 19.292 140.132 17.16C140.115 16.5187 140.34 16.0333 140.808 15.704C141.294 15.3747 141.848 15.21 142.472 15.21C143.755 15.21 144.96 15.5653 146.086 16.276C148.149 17.576 149.18 19.3267 149.18 21.528C149.18 22.4467 148.981 23.1833 148.582 23.738C149.12 23.686 149.596 23.4433 150.012 23.01C150.428 22.5593 150.697 22.0913 150.818 21.606ZM134.594 17.55C133.884 17.55 133.294 17.8533 132.826 18.46C132.376 19.032 132.081 19.7167 131.942 20.514C134.421 20.2193 135.66 19.552 135.66 18.512C135.66 18.2347 135.565 18.0093 135.374 17.836C135.201 17.6453 134.941 17.55 134.594 17.55ZM161.913 21.58L162.043 20.956C162.476 20.6787 162.918 20.644 163.369 20.852C163.837 21.0427 164.071 21.424 164.071 21.996C164.071 22.724 163.707 23.5213 162.979 24.388C161.852 25.7227 159.868 26.39 157.025 26.39C155.153 26.39 154.217 25.9047 154.217 24.934C154.217 24.466 154.373 24.128 154.685 23.92C156.21 23.92 156.973 23.27 156.973 21.97C156.973 20.9127 156.687 20.0373 156.115 19.344C155.543 18.6333 154.824 18.2173 153.957 18.096C153.888 19.24 153.628 20.5573 153.177 22.048C152.969 22.7067 152.744 23.1833 152.501 23.478C152.258 23.7727 151.938 23.92 151.539 23.92C151.088 23.92 150.733 23.7467 150.473 23.4C150.837 21.736 151.054 20.5747 151.123 19.916C151.227 19.0667 151.244 18.148 151.175 17.16C151.158 16.5187 151.383 16.0333 151.851 15.704C152.336 15.3747 152.891 15.21 153.515 15.21C154.798 15.21 156.002 15.5653 157.129 16.276C159.192 17.576 160.223 19.3267 160.223 21.528C160.223 22.412 160.032 23.1487 159.651 23.738C160.258 23.6513 160.76 23.3827 161.159 22.932C161.558 22.4467 161.809 21.996 161.913 21.58Z" fill="white"/>
</svg>
