<svg width="233" height="50" viewBox="0 0 233 50" fill="none" xmlns="http://www.w3.org/2000/svg">
<path d="M13.7068 38.4285C15.1668 27.8385 16.6268 17.2468 18.0868 6.65351C18.1288 6.35351 18.1408 6.04751 18.1868 5.74651C18.9438 0.746509 19.6478 0.246509 24.4868 0.911509C25.8738 1.10151 25.6168 1.91151 25.4788 2.84751C24.5408 9.22751 23.6308 15.6125 22.6938 21.9925C21.4588 30.3985 20.1518 38.7925 19.0088 47.2145C18.7818 48.8855 18.2458 49.3845 16.7088 49.3015C14.3338 49.1602 11.9523 49.1638 9.57777 49.3125C8.06577 49.4125 7.56477 48.7855 7.36077 47.3475C6.20677 39.2345 5.00677 31.1285 3.82077 23.0235C2.85477 16.4175 1.92277 9.80551 0.89377 3.21051C0.63677 1.56551 0.87777 0.846509 2.65677 0.904509C9.54077 1.12851 7.87277 -0.262491 8.94177 6.87951C10.4238 16.7795 11.6658 26.7265 13.0198 36.6515C13.0998 37.2435 13.2638 37.8225 13.3888 38.4085L13.7038 38.4315" fill="#FEA218"/>
<path d="M28.6474 25.0609C28.6474 17.7609 28.7014 10.4609 28.6094 3.16093C28.5864 1.34193 29.1234 0.765934 30.8174 0.793934C36.0024 0.877934 41.1894 0.865934 46.3744 0.798934C47.9214 0.778934 48.5554 1.23893 48.5034 2.99893C48.3574 7.98993 48.4194 7.99193 43.7034 7.99193C41.6864 7.99193 39.6684 8.02893 37.6534 7.97893C36.5364 7.95193 35.9384 8.20593 35.9744 9.60793C36.0611 12.9506 36.0611 16.2956 35.9744 19.6429C35.9404 21.0429 36.5204 21.2829 37.6554 21.2499C39.8864 21.1839 42.1214 21.2659 44.3554 21.2169C45.4184 21.1929 45.8554 21.5169 45.9144 22.7489C46.1894 28.2229 46.2294 28.2209 40.9994 28.2209C35.9994 28.2209 35.9994 28.2209 35.9994 33.5789C35.9994 35.7079 36.0794 37.8419 35.9734 39.9649C35.8964 41.5149 36.3234 42.1269 37.8834 42.0649C40.7604 41.9469 43.6454 42.0769 46.5254 42.0149C47.9994 41.9829 48.5254 42.5399 48.5074 44.1499C48.4374 49.1559 48.4934 49.1569 43.7844 49.1569C39.5344 49.1569 35.2844 49.0569 31.0364 49.2019C29.1944 49.2639 28.5554 48.8259 28.5934 46.7289C28.7264 39.5079 28.6444 32.2819 28.6444 25.0589" fill="#FEA218"/>
<path d="M73.972 48.1727C73.017 43.7437 73.565 39.2367 73.454 34.7637C73.364 31.1507 72.43 28.0177 68.996 25.8297C70.0264 25.216 70.9153 24.3915 71.6047 23.4102C72.294 22.429 72.7682 21.313 72.996 20.1357C73.6816 16.4683 73.7384 12.7111 73.164 9.02466C72.398 4.10466 70.164 1.91366 65.506 1.20266C61.779 0.633658 58.024 1.02566 54.295 0.785658C52.06 0.642658 51.495 1.46866 51.508 3.74566C51.599 17.0517 51.553 30.3587 51.553 43.6647C51.553 49.1287 51.553 49.0087 56.69 49.2237C58.746 49.3097 59.068 48.4987 59.03 46.6237C58.93 41.7597 59.03 36.8907 58.975 32.0237C58.958 30.5547 59.225 29.8397 60.856 29.8727C64.556 29.9467 65.892 31.1467 66.036 35.1977C66.155 38.5387 66.028 41.8907 66.18 45.2297C66.359 49.1647 66.438 49.1607 70.08 49.1607C71.088 49.1607 72.097 49.1497 73.105 49.1607C73.759 49.1697 74.178 49.1247 73.972 48.1677M65.894 18.8367C65.705 21.9367 62.055 24.0257 59.426 22.6367C58.809 22.3107 58.926 21.7837 58.917 21.2867C58.898 19.3147 58.909 17.3427 58.91 15.3707C58.91 13.4707 58.944 11.5777 58.899 9.68266C58.869 8.41866 59.358 8.00566 60.559 7.96366C64.814 7.81466 65.766 8.64166 65.959 13.1547C66.0356 15.0475 66.0146 16.943 65.896 18.8337" fill="#FEA218"/>
<path d="M98.6262 9.17343C98.5865 7.88973 98.2691 6.62986 97.696 5.48052C97.1229 4.33117 96.3076 3.31961 95.3062 2.51543C91.2562 -0.567571 86.8132 -0.650571 82.3972 1.37843C78.3052 3.25943 77.1112 7.10943 77.0822 11.4884C77.0532 15.8944 77.0762 20.3014 77.0762 24.7074H77.0612C77.0612 29.3424 76.9612 33.9804 77.0932 38.6074C77.1992 42.2884 78.1502 45.6824 81.3192 47.8594C88.7412 52.9594 98.2862 48.4834 98.7852 39.2314C99.3771 29.2174 99.3243 19.1757 98.6272 9.16843M90.8532 25.0144C90.8532 29.8844 90.7532 34.7574 90.8962 39.6234C90.9612 41.8654 89.7052 41.6464 88.3962 41.5904C87.1282 41.5364 85.5882 42.1424 85.6262 39.6594C85.7342 32.6594 85.6262 25.6594 85.7262 18.6594C85.7512 16.8504 85.3992 15.9124 83.4982 16.1974C82.6172 16.3294 81.6562 16.2974 81.8072 14.8774C81.9142 13.8774 81.2592 12.5374 83.0912 12.3494C83.9459 12.3017 84.7668 11.9989 85.4479 11.4803C86.1289 10.9616 86.639 10.2507 86.9122 9.43943C87.5572 7.63943 89.0122 8.42543 90.0812 8.42643C91.3072 8.42643 90.8242 9.68543 90.8302 10.4064C90.8722 15.2754 90.8522 20.1454 90.8522 25.0164" fill="#FEA218"/>
<path d="M133.529 12.864L133.385 13.08C130.097 13.032 127.061 13.104 124.277 13.296C123.629 15.864 123.125 18.528 122.765 21.288C124.877 20.952 126.581 20.76 127.877 20.712C129.005 20.688 129.833 20.856 130.361 21.216C130.913 21.576 131.189 22.188 131.189 23.052C131.189 23.604 131.057 24.06 130.793 24.42L130.649 24.6C127.817 24.624 125.045 24.756 122.333 24.996C122.165 26.724 122.021 28.572 121.901 30.54C124.637 30.108 127.001 29.88 128.993 29.856C131.201 29.808 132.305 30.732 132.305 32.628C132.305 33.204 132.161 33.72 131.873 34.176L131.765 34.392C130.781 34.32 128.633 34.404 125.321 34.644C121.817 34.908 119.813 35.04 119.309 35.04C117.821 35.04 117.077 34.38 117.077 33.06C117.077 25.428 117.617 19.032 118.697 13.872L117.617 14.088C116.441 14.328 115.565 14.856 114.989 15.672C114.437 16.488 114.185 17.316 114.233 18.156C114.281 18.972 114.521 19.656 114.953 20.208C114.065 20.832 113.009 20.928 111.785 20.496C110.537 19.92 109.913 18.696 109.913 16.824C109.913 15.216 110.489 13.848 111.641 12.72C112.793 11.568 114.413 10.728 116.501 10.2C120.077 9.288 124.625 8.82 130.145 8.796C131.489 8.772 132.461 8.94 133.061 9.3C133.661 9.66 133.961 10.308 133.961 11.244C133.961 11.868 133.817 12.408 133.529 12.864ZM151.509 28.452L151.761 27.516C152.361 27.132 152.985 27.084 153.633 27.372C154.257 27.636 154.569 28.164 154.569 28.956C154.569 30.012 154.089 31.164 153.129 32.412C151.809 34.164 150.141 35.04 148.125 35.04C147.069 35.04 146.109 34.788 145.245 34.284C144.405 33.732 143.397 32.748 142.221 31.332C141.213 32.724 140.313 33.696 139.521 34.248C138.777 34.776 137.817 35.04 136.641 35.04C135.393 35.04 134.397 34.62 133.653 33.78C132.909 32.916 132.537 31.752 132.537 30.288C132.537 29.352 132.753 28.608 133.185 28.056C133.617 27.48 134.193 27.192 134.913 27.192C135.249 27.192 135.549 27.276 135.813 27.444C136.101 27.612 136.281 27.804 136.353 28.02L136.461 28.272C136.197 28.896 136.101 29.544 136.173 30.216C136.269 30.888 136.557 31.224 137.037 31.224C137.541 31.224 138.417 30.108 139.665 27.876C137.673 25.044 136.437 23.376 135.957 22.872C135.741 22.68 135.477 22.452 135.165 22.188C135.165 21.468 135.417 20.856 135.921 20.352C136.425 19.824 137.097 19.56 137.937 19.56C138.897 19.56 139.677 19.824 140.277 20.352C140.877 20.856 141.597 21.816 142.437 23.232C143.373 21.912 144.261 20.976 145.101 20.424C145.941 19.848 146.865 19.56 147.873 19.56C148.665 19.56 149.301 19.812 149.781 20.316C150.261 20.796 150.513 21.468 150.537 22.332C149.481 22.692 148.521 23.244 147.657 23.988C146.817 24.732 145.881 25.872 144.849 27.408C145.545 28.56 146.169 29.448 146.721 30.072C147.249 30.624 147.645 30.96 147.909 31.08C148.173 31.2 148.533 31.26 148.989 31.26C149.565 31.26 150.093 30.948 150.573 30.324C150.981 29.772 151.293 29.148 151.509 28.452ZM169.334 27.912L169.406 27.516C170.006 27.132 170.63 27.084 171.278 27.372C171.902 27.636 172.214 28.164 172.214 28.956C172.214 29.964 171.71 31.056 170.702 32.232C170.006 33.048 168.854 33.72 167.246 34.248C165.662 34.776 163.802 35.04 161.666 35.04C159.17 35.04 157.19 34.44 155.726 33.24C155.51 35.232 155.222 37.272 154.862 39.36C154.718 40.2 154.454 40.8 154.07 41.16C153.686 41.52 153.11 41.7 152.342 41.7C151.478 41.7 150.806 41.46 150.326 40.98C150.71 38.94 150.998 36.912 151.19 34.896C151.334 33.456 151.466 31.212 151.586 28.164C151.73 25.068 151.826 23.172 151.874 22.476C152.018 20.532 153.014 19.56 154.862 19.56C155.51 19.56 156.002 19.728 156.338 20.064C156.698 20.376 156.866 20.844 156.842 21.468C158.066 20.196 159.554 19.56 161.306 19.56C163.106 19.56 164.546 20.124 165.626 21.252C166.706 22.38 167.246 23.916 167.246 25.86C167.246 28.092 166.502 30.024 165.014 31.656C166.286 31.536 167.27 31.08 167.966 30.288C168.662 29.496 169.118 28.704 169.334 27.912ZM160.37 30.9C161.714 29.988 162.386 28.452 162.386 26.292C162.386 24.204 161.678 23.16 160.262 23.16C159.254 23.16 158.402 23.688 157.706 24.744C157.034 25.8 156.602 27.252 156.41 29.1C156.77 28.812 157.202 28.668 157.706 28.668C158.426 28.668 159.014 28.872 159.47 29.28C159.95 29.664 160.25 30.204 160.37 30.9ZM183.742 28.452L183.994 27.516C184.594 27.132 185.206 27.084 185.83 27.372C186.478 27.636 186.802 28.164 186.802 28.956C186.802 30.012 186.322 31.164 185.362 32.412C184.042 34.164 182.494 35.04 180.718 35.04C178.126 35.04 176.758 33.78 176.614 31.26C176.518 29.628 176.398 28.272 176.254 27.192C176.158 26.424 176.014 25.884 175.822 25.572C175.63 25.26 175.306 25.02 174.85 24.852C174.346 24.66 173.842 24.588 173.338 24.636C173.266 25.932 172.966 27.396 172.438 29.028C172.15 29.964 171.838 30.636 171.502 31.044C171.166 31.428 170.722 31.62 170.17 31.62C169.546 31.62 169.054 31.38 168.694 30.9C169.486 27.252 169.882 24.804 169.882 23.556C169.042 22.5 168.85 21.456 169.306 20.424C169.786 19.368 170.626 18.84 171.826 18.84C172.33 18.84 172.762 18.96 173.122 19.2C173.506 19.416 173.806 19.668 174.022 19.956C174.238 20.244 174.37 20.4 174.418 20.424C174.874 20.64 175.606 20.856 176.614 21.072C177.598 21.288 178.294 21.516 178.702 21.756C179.134 21.972 179.518 22.392 179.854 23.016C180.19 23.616 180.43 24.372 180.574 25.284C180.718 26.196 180.874 27.684 181.042 29.748C181.114 30.756 181.414 31.26 181.942 31.26C182.326 31.26 182.686 30.948 183.022 30.324C183.358 29.7 183.598 29.076 183.742 28.452ZM214.172 28.416L214.424 27.516C215.024 27.132 215.636 27.084 216.26 27.372C216.908 27.636 217.232 28.164 217.232 28.956C217.232 29.964 216.728 31.068 215.72 32.268C214.16 34.116 211.412 35.04 207.476 35.04C206.252 35.04 205.292 34.86 204.596 34.5C203.924 34.116 203.588 33.6 203.588 32.952C203.588 32.352 203.804 31.908 204.236 31.62C206.348 31.62 207.404 30.72 207.404 28.92C207.404 27.528 207.008 26.328 206.216 25.32C205.448 24.312 204.452 23.724 203.228 23.556C202.964 27.06 201.812 29.856 199.772 31.944C197.708 34.008 194.792 35.04 191.024 35.04C188.6 35.04 186.704 34.452 185.336 33.276C183.968 32.1 183.284 30.468 183.284 28.38C183.284 25.98 184.076 23.916 185.66 22.188C187.268 20.436 189.296 19.56 191.744 19.56C193.4 19.56 194.708 19.956 195.668 20.748C196.652 21.54 197.144 22.584 197.144 23.88C197.144 25.488 196.388 26.82 194.876 27.876C193.364 28.932 191.216 29.616 188.432 29.928C189.056 31.056 190.196 31.62 191.852 31.62C194.42 31.62 196.352 30.804 197.648 29.172C198.968 27.516 199.544 25.212 199.376 22.26C199.352 21.372 199.664 20.7 200.312 20.244C200.984 19.788 201.752 19.56 202.616 19.56C204.392 19.56 206.06 20.052 207.62 21.036C210.476 22.836 211.904 25.26 211.904 28.308C211.904 29.58 211.628 30.6 211.076 31.368C211.82 31.296 212.48 30.96 213.056 30.36C213.632 29.736 214.004 29.088 214.172 28.416ZM191.708 22.8C190.724 22.8 189.908 23.22 189.26 24.06C188.636 24.852 188.228 25.8 188.036 26.904C191.468 26.496 193.184 25.572 193.184 24.132C193.184 23.748 193.052 23.436 192.788 23.196C192.548 22.932 192.188 22.8 191.708 22.8ZM229.534 28.38L229.714 27.516C230.314 27.132 230.926 27.084 231.55 27.372C232.198 27.636 232.522 28.164 232.522 28.956C232.522 29.964 232.018 31.068 231.01 32.268C229.45 34.116 226.702 35.04 222.766 35.04C220.174 35.04 218.878 34.368 218.878 33.024C218.878 32.376 219.094 31.908 219.526 31.62C221.638 31.62 222.694 30.72 222.694 28.92C222.694 27.456 222.298 26.244 221.506 25.284C220.714 24.3 219.718 23.724 218.518 23.556C218.422 25.14 218.062 26.964 217.438 29.028C217.15 29.94 216.838 30.6 216.502 31.008C216.166 31.416 215.722 31.62 215.17 31.62C214.546 31.62 214.054 31.38 213.694 30.9C214.198 28.596 214.498 26.988 214.594 26.076C214.738 24.9 214.762 23.628 214.666 22.26C214.642 21.372 214.954 20.7 215.602 20.244C216.274 19.788 217.042 19.56 217.906 19.56C219.682 19.56 221.35 20.052 222.91 21.036C225.766 22.836 227.194 25.26 227.194 28.308C227.194 29.532 226.93 30.552 226.402 31.368C227.242 31.248 227.938 30.876 228.49 30.252C229.042 29.58 229.39 28.956 229.534 28.38Z" fill="#1D2733"/>
</svg>
